<?xml version="1.0" encoding="utf-8"?>
<!-- Generator: Adobe Illustrator 24.0.2, SVG Export Plug-In . SVG Version: 6.00 Build 0)  -->
<svg version="1.1" id="Layer_1" xmlns="http://www.w3.org/2000/svg" xmlns:xlink="http://www.w3.org/1999/xlink" x="0px" y="0px"
	 viewBox="0 0 512 512" style="enable-background:new 0 0 512 512;" xml:space="preserve">
<style type="text/css">
	.st0{fill:#F8E390;}
	.st1{fill:#E0CD83;}
	.st2{fill:#FDF7DE;}
	.st3{fill:#444B54;}
</style>
<path class="st0" d="M419.7,452.4H92.3c-41.3,0-74.8-33.5-74.8-74.8V134.4c0-41.3,33.5-74.8,74.8-74.8h327.3
	c41.3,0,74.8,33.5,74.8,74.8v243.2C494.5,418.9,461,452.4,419.7,452.4"/>
<path class="st1" d="M256,368.2v-65.5h-70.1v-77.2c0-7.4-3-14.6-8.2-19.8L152,180c-5.3-5.3-12.4-8.2-19.8-8.2H17.5v205.7
	c0,41.3,33.5,74.8,74.8,74.8h247.8L256,368.2z"/>
<path class="st2" d="M419.7,59.6H92.3l0,0c0,0-0.1,0-0.1,0c0,0,0,0,0,0c0,0-0.1,0-0.1,0c0,0,0,0,0,0c0,0-0.1,0-0.1,0c0,0,0,0,0,0
	c0,0-0.1,0-0.1,0c0,0,0,0,0,0c0,0-0.1,0-0.1,0c0,0,0,0,0,0c-0.1,0-0.2,0-0.3,0l0,0C57,60,28.2,83.7,20,115.7H492
	c-8.2-32-37.1-55.7-71.5-56.1l0,0c-0.1,0-0.2,0-0.3,0c0,0,0,0,0,0c0,0-0.1,0-0.1,0c0,0,0,0,0,0c0,0-0.1,0-0.1,0c0,0,0,0,0,0
	c0,0-0.1,0-0.1,0c0,0,0,0,0,0c0,0-0.1,0-0.1,0c0,0,0,0,0,0C419.7,59.6,419.7,59.6,419.7,59.6L419.7,59.6"/>
<path class="st1" d="M494.5,171.8H379.8c-7.4,0-14.6,3-19.8,8.2l-25.6,25.6c-5.3,5.3-8.2,12.4-8.2,19.8v60.9c0,7.4,3,14.6,8.2,19.8
	L360,332c5.3,5.3,12.4,8.2,19.8,8.2h114.6V171.8"/>
<path class="st3" d="M17.5,354.2h114.6c11.2,0,21.9-4.4,29.8-12.3l25.7-25.7l0,0c7.9-7.9,12.3-18.6,12.3-29.8v-60.9
	c0-11.2-4.4-21.9-12.3-29.8L161.8,170l0.1,0.1c-7.9-7.9-18.6-12.3-29.8-12.3H17.5v28.1h114.6c3.7,0,7.3,1.5,9.9,4.1l0,0l25.6,25.6
	l0,0c2.6,2.6,4.1,6.2,4.1,9.9v60.9c0,3.7-1.5,7.3-4.1,9.9L142.1,322l0,0c-2.6,2.6-6.2,4.1-9.9,4.1H17.5V354.2L17.5,354.2z"/>
<path class="st3" d="M17.5,270h98.2c7.7,0,14-6.3,14-14c0-7.7-6.3-14-14-14H17.5V270 M494.5,326.1H379.8c-3.7,0-7.3-1.5-9.9-4.1
	l-25.6-25.6l0,0c-2.6-2.6-4.1-6.2-4.1-9.9v-60.9c0-3.7,1.5-7.3,4.1-9.9l0,0l25.6-25.6l0,0c2.6-2.6,6.2-4.1,9.9-4.1h114.6v-28.1
	H379.8c-11.2,0-21.9,4.4-29.8,12.3l-25.7,25.7l0,0c-7.9,7.9-12.3,18.6-12.3,29.7v60.9c0,11.2,4.4,21.9,12.3,29.8l25.7,25.7l0,0
	c7.9,7.9,18.6,12.3,29.8,12.3h114.6V326.1L494.5,326.1z"/>
<path class="st3" d="M494.5,242h-98.2c-7.7,0-14,6.3-14,14c0,7.7,6.3,14,14,14h98.2V242 M242,227.9h86.5c7.7,0,14-6.3,14-14
	c0-7.7-6.3-14-14-14H242c-7.7,0-14,6.3-14,14C227.9,221.7,234.2,227.9,242,227.9 M181.7,462.3l76-76c7.9-7.9,12.3-18.6,12.3-29.8
	v-49.2c0-7.7-6.3-14-14-14c-7.7,0-14,6.3-14,14v49.2c0,3.7-1.5,7.3-4.1,9.9l-76,76c-5.5,5.5-5.5,14.4,0,19.8
	C167.4,467.8,176.3,467.8,181.7,462.3L181.7,462.3z M288.2,420.2l42.1,42.1c5.5,5.5,14.4,5.5,19.8,0c5.5-5.5,5.5-14.4,0-19.8
	L308,400.4c-5.5-5.5-14.4-5.5-19.8,0C282.7,405.9,282.7,414.8,288.2,420.2"/>
<path class="st3" d="M482.5,71.6c-16-16.1-38.3-26-62.8-26H92.3c-24.5,0-46.8,10-62.8,26c-16.1,16-26,38.3-26,62.8v243.2
	c0,24.5,10,46.8,26,62.8c16,16.1,38.3,26,62.8,26h327.3c24.5,0,46.8-10,62.8-26c16.1-16,26-38.3,26-62.8V134.4
	C508.5,109.9,498.5,87.6,482.5,71.6z M480.5,377.6c0,16.8-6.8,31.9-17.8,43c-11,11-26.2,17.8-43,17.8H92.3c-16.8,0-31.9-6.8-43-17.8
	c-11-11-17.8-26.2-17.8-43V134.4c0-16.8,6.8-31.9,17.8-43c11-11,26.2-17.8,43-17.8h327.3c16.8,0,31.9,6.8,43,17.8
	c11,11,17.8,26.2,17.8,43V377.6z"/>
<path class="st3" d="M181.2,316.8h149.6c7.7,0,14-6.3,14-14s-6.3-14-14-14H181.2c-7.7,0-14,6.3-14,14S173.4,316.8,181.2,316.8"/>
</svg>
