<svg id="Layer_1" data-name="Layer 1" xmlns="http://www.w3.org/2000/svg" viewBox="0 0 485.89 320.79"><defs><style>.cls-1{fill:#fff;}.cls-2{fill:none;stroke:#000;stroke-miterlimit:10;stroke-width:20px;}</style></defs><title>logo</title><rect class="cls-1" x="10" y="10" width="465.89" height="300.79" rx="50"/><rect class="cls-2" x="10" y="10" width="465.89" height="300.79" rx="50"/><path d="M176.16,239.89,132,369.83H108.15L65,239.89H85l28,87.59,8,25.65,8.15-25.65,28.14-87.59Z" transform="translate(-13.46 -93.42)"/><path d="M281.05,369.83h-20l-19.39-41.55a45.53,45.53,0,0,0-4.48-7.91,21.12,21.12,0,0,0-4.92-5,17.47,17.47,0,0,0-5.77-2.63,28.41,28.41,0,0,0-7-.8h-8.36v57.86H193.46V239.89h34.79a67.52,67.52,0,0,1,19.49,2.48,36.81,36.81,0,0,1,13.38,7,26.74,26.74,0,0,1,7.65,10.79,38.62,38.62,0,0,1,2.44,14,36.45,36.45,0,0,1-1.79,11.48,31.65,31.65,0,0,1-5.32,9.85,33.85,33.85,0,0,1-8.75,7.65,39.89,39.89,0,0,1-12,4.82,20.38,20.38,0,0,1,9.29,6.62,71.28,71.28,0,0,1,7.81,12.57Zm-28.34-94.25q0-10.44-6.51-15.61t-18.34-5.17H211.15v42.95h14.32a41,41,0,0,0,11.29-1.44,24.35,24.35,0,0,0,8.55-4.27,19.37,19.37,0,0,0,5.46-7A22,22,0,0,0,252.71,275.58Z" transform="translate(-13.46 -93.42)"/><rect x="9.43" y="65.97" width="465.89" height="57.67"/></svg>